<svg width="154" height="154" viewBox="0 0 154 154" fill="none" xmlns="http://www.w3.org/2000/svg">
<circle cx="77" cy="77" r="77" fill="#71C95D"/>
<circle cx="77" cy="77" r="69.25" stroke="white" stroke-width="1.5" stroke-dasharray="3 3"/>
<path d="M31.654 59L28.234 48.455H30.244L32.779 56.57H32.104L34.594 48.455H36.109L38.599 56.57H37.909L40.459 48.455H42.469L39.034 59H37.519L35.014 50.9H35.674L33.184 59H31.654ZM43.9568 59V51.755H45.9368V59H43.9568ZM44.9468 50.585C44.6268 50.585 44.3618 50.48 44.1518 50.27C43.9418 50.05 43.8368 49.78 43.8368 49.46C43.8368 49.15 43.9418 48.885 44.1518 48.665C44.3618 48.445 44.6268 48.335 44.9468 48.335C45.2768 48.335 45.5418 48.445 45.7418 48.665C45.9518 48.885 46.0568 49.15 46.0568 49.46C46.0568 49.78 45.9518 50.05 45.7418 50.27C45.5418 50.48 45.2768 50.585 44.9468 50.585ZM47.3925 62.21C46.8725 62.21 46.4425 62.125 46.1025 61.955C45.7525 61.785 45.4375 61.545 45.1575 61.235L46.4025 59.99C46.5225 60.14 46.6525 60.245 46.7925 60.305C46.9225 60.375 47.0775 60.41 47.2575 60.41C47.5075 60.41 47.7175 60.335 47.8875 60.185C48.0575 60.035 48.1425 59.815 48.1425 59.525V51.755H50.1075V59.495C50.1075 60.065 49.9825 60.55 49.7325 60.95C49.4925 61.36 49.1675 61.67 48.7575 61.88C48.3575 62.1 47.9025 62.21 47.3925 62.21ZM49.1475 50.585C48.8275 50.585 48.5625 50.48 48.3525 50.27C48.1425 50.05 48.0375 49.78 48.0375 49.46C48.0375 49.15 48.1425 48.885 48.3525 48.665C48.5625 48.445 48.8275 48.335 49.1475 48.335C49.4775 48.335 49.7425 48.445 49.9425 48.665C50.1525 48.885 50.2575 49.15 50.2575 49.46C50.2575 49.78 50.1525 50.05 49.9425 50.27C49.7425 50.48 49.4775 50.585 49.1475 50.585ZM58.3897 62.21C57.6197 62.21 56.9397 62.07 56.3497 61.79C55.7597 61.52 55.2897 61.135 54.9397 60.635L56.1847 59.39C56.4647 59.72 56.7747 59.97 57.1147 60.14C57.4647 60.32 57.8847 60.41 58.3747 60.41C58.9847 60.41 59.4647 60.255 59.8147 59.945C60.1747 59.635 60.3547 59.205 60.3547 58.655V56.84L60.6847 55.25L60.3697 53.66V51.755H62.3197V58.625C62.3197 59.345 62.1497 59.97 61.8097 60.5C61.4797 61.04 61.0197 61.46 60.4297 61.76C59.8397 62.06 59.1597 62.21 58.3897 62.21ZM58.2997 58.805C57.6497 58.805 57.0647 58.65 56.5447 58.34C56.0247 58.02 55.6147 57.585 55.3147 57.035C55.0247 56.485 54.8797 55.87 54.8797 55.19C54.8797 54.51 55.0247 53.9 55.3147 53.36C55.6147 52.82 56.0247 52.395 56.5447 52.085C57.0647 51.765 57.6497 51.605 58.2997 51.605C58.8397 51.605 59.3147 51.71 59.7247 51.92C60.1447 52.13 60.4747 52.42 60.7147 52.79C60.9547 53.15 61.0847 53.575 61.1047 54.065V56.345C61.0847 56.825 60.9497 57.255 60.6997 57.635C60.4597 58.005 60.1297 58.295 59.7097 58.505C59.2997 58.705 58.8297 58.805 58.2997 58.805ZM58.6897 57.02C59.0497 57.02 59.3597 56.945 59.6197 56.795C59.8897 56.635 60.0997 56.42 60.2497 56.15C60.3997 55.87 60.4747 55.555 60.4747 55.205C60.4747 54.845 60.3997 54.53 60.2497 54.26C60.0997 53.99 59.8897 53.78 59.6197 53.63C59.3597 53.47 59.0497 53.39 58.6897 53.39C58.3297 53.39 58.0147 53.47 57.7447 53.63C57.4747 53.78 57.2647 53.995 57.1147 54.275C56.9647 54.545 56.8897 54.855 56.8897 55.205C56.8897 55.545 56.9647 55.855 57.1147 56.135C57.2647 56.405 57.4747 56.62 57.7447 56.78C58.0147 56.94 58.3297 57.02 58.6897 57.02ZM67.3763 59.15C66.7163 59.15 66.1213 58.985 65.5913 58.655C65.0613 58.325 64.6463 57.875 64.3463 57.305C64.0463 56.735 63.8963 56.095 63.8963 55.385C63.8963 54.665 64.0463 54.02 64.3463 53.45C64.6463 52.88 65.0613 52.43 65.5913 52.1C66.1213 51.77 66.7163 51.605 67.3763 51.605C67.8963 51.605 68.3613 51.71 68.7713 51.92C69.1813 52.13 69.5063 52.425 69.7463 52.805C69.9963 53.175 70.1313 53.595 70.1513 54.065V56.675C70.1313 57.155 69.9963 57.58 69.7463 57.95C69.5063 58.32 69.1813 58.615 68.7713 58.835C68.3613 59.045 67.8963 59.15 67.3763 59.15ZM67.7363 57.335C68.2863 57.335 68.7313 57.155 69.0713 56.795C69.4113 56.425 69.5813 55.95 69.5813 55.37C69.5813 54.99 69.5013 54.655 69.3413 54.365C69.1913 54.065 68.9763 53.835 68.6963 53.675C68.4263 53.505 68.1063 53.42 67.7363 53.42C67.3763 53.42 67.0563 53.505 66.7763 53.675C66.5063 53.835 66.2913 54.065 66.1313 54.365C65.9813 54.655 65.9063 54.99 65.9063 55.37C65.9063 55.76 65.9813 56.105 66.1313 56.405C66.2913 56.695 66.5063 56.925 66.7763 57.095C67.0563 57.255 67.3763 57.335 67.7363 57.335ZM69.4763 59V57.05L69.7913 55.28L69.4763 53.54V51.755H71.4263V59H69.4763ZM76.4946 59.15C75.8346 59.15 75.2396 58.985 74.7096 58.655C74.1796 58.325 73.7646 57.875 73.4646 57.305C73.1646 56.735 73.0146 56.095 73.0146 55.385C73.0146 54.665 73.1646 54.02 73.4646 53.45C73.7646 52.88 74.1796 52.43 74.7096 52.1C75.2396 51.77 75.8346 51.605 76.4946 51.605C77.0146 51.605 77.4796 51.71 77.8896 51.92C78.2996 52.13 78.6246 52.425 78.8646 52.805C79.1146 53.175 79.2496 53.595 79.2696 54.065V56.675C79.2496 57.155 79.1146 57.58 78.8646 57.95C78.6246 58.32 78.2996 58.615 77.8896 58.835C77.4796 59.045 77.0146 59.15 76.4946 59.15ZM76.8546 57.335C77.4046 57.335 77.8496 57.155 78.1896 56.795C78.5296 56.425 78.6996 55.95 78.6996 55.37C78.6996 54.99 78.6196 54.655 78.4596 54.365C78.3096 54.065 78.0946 53.835 77.8146 53.675C77.5446 53.505 77.2246 53.42 76.8546 53.42C76.4946 53.42 76.1746 53.505 75.8946 53.675C75.6246 53.835 75.4096 54.065 75.2496 54.365C75.0996 54.655 75.0246 54.99 75.0246 55.37C75.0246 55.76 75.0996 56.105 75.2496 56.405C75.4096 56.695 75.6246 56.925 75.8946 57.095C76.1746 57.255 76.4946 57.335 76.8546 57.335ZM78.5946 59V57.05L78.9096 55.28L78.5946 53.54V51.755H80.5446V59H78.5946ZM87.458 59V54.845C87.458 54.415 87.323 54.065 87.053 53.795C86.783 53.525 86.433 53.39 86.003 53.39C85.723 53.39 85.473 53.45 85.253 53.57C85.033 53.69 84.858 53.86 84.728 54.08C84.608 54.3 84.548 54.555 84.548 54.845L83.783 54.455C83.783 53.885 83.903 53.39 84.143 52.97C84.393 52.54 84.733 52.205 85.163 51.965C85.603 51.725 86.098 51.605 86.648 51.605C87.178 51.605 87.653 51.74 88.073 52.01C88.493 52.27 88.823 52.615 89.063 53.045C89.303 53.465 89.423 53.92 89.423 54.41V59H87.458ZM82.583 59V51.755H84.548V59H82.583ZM96.8905 59L93.6955 51.755H95.8555L98.1505 57.725H97.0855L99.3955 51.755H101.481L98.3005 59H96.8905ZM105.887 59.15C105.157 59.15 104.497 58.985 103.907 58.655C103.327 58.315 102.862 57.86 102.512 57.29C102.172 56.71 102.002 56.065 102.002 55.355C102.002 54.645 102.172 54.01 102.512 53.45C102.852 52.88 103.317 52.43 103.907 52.1C104.497 51.76 105.152 51.59 105.872 51.59C106.612 51.59 107.272 51.76 107.852 52.1C108.442 52.43 108.907 52.88 109.247 53.45C109.587 54.01 109.757 54.645 109.757 55.355C109.757 56.065 109.587 56.71 109.247 57.29C108.907 57.86 108.442 58.315 107.852 58.655C107.272 58.985 106.617 59.15 105.887 59.15ZM105.872 57.32C106.242 57.32 106.567 57.24 106.847 57.08C107.137 56.91 107.357 56.68 107.507 56.39C107.667 56.09 107.747 55.75 107.747 55.37C107.747 54.99 107.667 54.655 107.507 54.365C107.347 54.075 107.127 53.85 106.847 53.69C106.567 53.52 106.242 53.435 105.872 53.435C105.512 53.435 105.192 53.52 104.912 53.69C104.632 53.85 104.412 54.075 104.252 54.365C104.092 54.655 104.012 54.99 104.012 55.37C104.012 55.75 104.092 56.09 104.252 56.39C104.412 56.68 104.632 56.91 104.912 57.08C105.192 57.24 105.512 57.32 105.872 57.32ZM114.727 59.15C113.997 59.15 113.337 58.985 112.747 58.655C112.167 58.315 111.702 57.86 111.352 57.29C111.012 56.71 110.842 56.065 110.842 55.355C110.842 54.645 111.012 54.01 111.352 53.45C111.692 52.88 112.157 52.43 112.747 52.1C113.337 51.76 113.992 51.59 114.712 51.59C115.452 51.59 116.112 51.76 116.692 52.1C117.282 52.43 117.747 52.88 118.087 53.45C118.427 54.01 118.597 54.645 118.597 55.355C118.597 56.065 118.427 56.71 118.087 57.29C117.747 57.86 117.282 58.315 116.692 58.655C116.112 58.985 115.457 59.15 114.727 59.15ZM114.712 57.32C115.082 57.32 115.407 57.24 115.687 57.08C115.977 56.91 116.197 56.68 116.347 56.39C116.507 56.09 116.587 55.75 116.587 55.37C116.587 54.99 116.507 54.655 116.347 54.365C116.187 54.075 115.967 53.85 115.687 53.69C115.407 53.52 115.082 53.435 114.712 53.435C114.352 53.435 114.032 53.52 113.752 53.69C113.472 53.85 113.252 54.075 113.092 54.365C112.932 54.655 112.852 54.99 112.852 55.37C112.852 55.75 112.932 56.09 113.092 56.39C113.252 56.68 113.472 56.91 113.752 57.08C114.032 57.24 114.352 57.32 114.712 57.32ZM120.162 59V51.755H122.127V59H120.162ZM122.127 54.995L121.362 54.485C121.452 53.595 121.712 52.895 122.142 52.385C122.572 51.865 123.192 51.605 124.002 51.605C124.352 51.605 124.667 51.665 124.947 51.785C125.227 51.895 125.482 52.08 125.712 52.34L124.482 53.75C124.372 53.63 124.237 53.54 124.077 53.48C123.927 53.42 123.752 53.39 123.552 53.39C123.132 53.39 122.787 53.525 122.517 53.795C122.257 54.055 122.127 54.455 122.127 54.995ZM43.1536 107.15C42.4236 107.15 41.7636 106.985 41.1736 106.655C40.5936 106.315 40.1286 105.86 39.7786 105.29C39.4386 104.71 39.2686 104.065 39.2686 103.355C39.2686 102.645 39.4386 102.01 39.7786 101.45C40.1186 100.88 40.5836 100.43 41.1736 100.1C41.7636 99.76 42.4186 99.59 43.1386 99.59C43.8786 99.59 44.5386 99.76 45.1186 100.1C45.7086 100.43 46.1736 100.88 46.5136 101.45C46.8536 102.01 47.0236 102.645 47.0236 103.355C47.0236 104.065 46.8536 104.71 46.5136 105.29C46.1736 105.86 45.7086 106.315 45.1186 106.655C44.5386 106.985 43.8836 107.15 43.1536 107.15ZM43.1386 105.32C43.5086 105.32 43.8336 105.24 44.1136 105.08C44.4036 104.91 44.6236 104.68 44.7736 104.39C44.9336 104.09 45.0136 103.75 45.0136 103.37C45.0136 102.99 44.9336 102.655 44.7736 102.365C44.6136 102.075 44.3936 101.85 44.1136 101.69C43.8336 101.52 43.5086 101.435 43.1386 101.435C42.7786 101.435 42.4586 101.52 42.1786 101.69C41.8986 101.85 41.6786 102.075 41.5186 102.365C41.3586 102.655 41.2786 102.99 41.2786 103.37C41.2786 103.75 41.3586 104.09 41.5186 104.39C41.6786 104.68 41.8986 104.91 42.1786 105.08C42.4586 105.24 42.7786 105.32 43.1386 105.32ZM53.4637 107V102.845C53.4637 102.415 53.3287 102.065 53.0587 101.795C52.7887 101.525 52.4387 101.39 52.0087 101.39C51.7287 101.39 51.4787 101.45 51.2587 101.57C51.0387 101.69 50.8637 101.86 50.7337 102.08C50.6137 102.3 50.5537 102.555 50.5537 102.845L49.7887 102.455C49.7887 101.885 49.9087 101.39 50.1487 100.97C50.3987 100.54 50.7387 100.205 51.1687 99.965C51.6087 99.725 52.1037 99.605 52.6537 99.605C53.1837 99.605 53.6587 99.74 54.0787 100.01C54.4987 100.27 54.8287 100.615 55.0687 101.045C55.3087 101.465 55.4287 101.92 55.4287 102.41V107H53.4637ZM48.5887 107V99.755H50.5537V107H48.5887ZM60.3715 107.15C59.7015 107.15 59.1015 106.985 58.5715 106.655C58.0415 106.325 57.6215 105.875 57.3115 105.305C57.0115 104.735 56.8615 104.095 56.8615 103.385C56.8615 102.665 57.0115 102.02 57.3115 101.45C57.6215 100.88 58.0365 100.43 58.5565 100.1C59.0865 99.77 59.6915 99.605 60.3715 99.605C60.8915 99.605 61.3565 99.71 61.7665 99.92C62.1865 100.13 62.5215 100.425 62.7715 100.805C63.0315 101.175 63.1715 101.595 63.1915 102.065V104.645C63.1715 105.115 63.0365 105.54 62.7865 105.92C62.5365 106.3 62.2015 106.6 61.7815 106.82C61.3615 107.04 60.8915 107.15 60.3715 107.15ZM60.7015 105.335C61.0715 105.335 61.3915 105.255 61.6615 105.095C61.9415 104.925 62.1565 104.695 62.3065 104.405C62.4665 104.105 62.5465 103.76 62.5465 103.37C62.5465 102.99 62.4665 102.655 62.3065 102.365C62.1565 102.065 61.9415 101.835 61.6615 101.675C61.3915 101.505 61.0765 101.42 60.7165 101.42C60.3465 101.42 60.0215 101.505 59.7415 101.675C59.4715 101.845 59.2565 102.075 59.0965 102.365C58.9465 102.655 58.8715 102.99 58.8715 103.37C58.8715 103.76 58.9465 104.105 59.0965 104.405C59.2565 104.695 59.4765 104.925 59.7565 105.095C60.0365 105.255 60.3515 105.335 60.7015 105.335ZM64.3915 107H62.4415V105.05L62.7565 103.28L62.4265 101.54V96.155H64.3915V107ZM69.8949 107.15C69.1349 107.15 68.4599 106.99 67.8699 106.67C67.2799 106.34 66.8099 105.89 66.4599 105.32C66.1199 104.75 65.9499 104.1 65.9499 103.37C65.9499 102.65 66.1149 102.01 66.4449 101.45C66.7849 100.88 67.2449 100.43 67.8249 100.1C68.4049 99.76 69.0499 99.59 69.7599 99.59C70.4599 99.59 71.0749 99.75 71.6049 100.07C72.1449 100.38 72.5649 100.81 72.8649 101.36C73.1749 101.9 73.3299 102.515 73.3299 103.205C73.3299 103.335 73.3199 103.47 73.2999 103.61C73.2899 103.74 73.2649 103.89 73.2249 104.06L67.1349 104.075V102.605L72.3099 102.59L71.5149 103.205C71.4949 102.775 71.4149 102.415 71.2749 102.125C71.1449 101.835 70.9499 101.615 70.6899 101.465C70.4399 101.305 70.1299 101.225 69.7599 101.225C69.3699 101.225 69.0299 101.315 68.7399 101.495C68.4499 101.665 68.2249 101.91 68.0649 102.23C67.9149 102.54 67.8399 102.91 67.8399 103.34C67.8399 103.78 67.9199 104.165 68.0799 104.495C68.2499 104.815 68.4899 105.065 68.7999 105.245C69.1099 105.415 69.4699 105.5 69.8799 105.5C70.2499 105.5 70.5849 105.44 70.8849 105.32C71.1849 105.19 71.4449 105 71.6649 104.75L72.8199 105.905C72.4699 106.315 72.0399 106.625 71.5299 106.835C71.0299 107.045 70.4849 107.15 69.8949 107.15ZM74.8451 107V99.755H76.8101V107H74.8451ZM76.8101 102.995L76.0451 102.485C76.1351 101.595 76.3951 100.895 76.8251 100.385C77.2551 99.865 77.8751 99.605 78.6851 99.605C79.0351 99.605 79.3501 99.665 79.6301 99.785C79.9101 99.895 80.1651 100.08 80.3951 100.34L79.1651 101.75C79.0551 101.63 78.9201 101.54 78.7601 101.48C78.6101 101.42 78.4351 101.39 78.2351 101.39C77.8151 101.39 77.4701 101.525 77.2001 101.795C76.9401 102.055 76.8101 102.455 76.8101 102.995ZM86.2603 107V102.845C86.2603 102.415 86.1253 102.065 85.8553 101.795C85.5853 101.525 85.2353 101.39 84.8053 101.39C84.5253 101.39 84.2753 101.45 84.0553 101.57C83.8353 101.69 83.6603 101.86 83.5303 102.08C83.4103 102.3 83.3503 102.555 83.3503 102.845L82.5853 102.455C82.5853 101.885 82.7053 101.39 82.9453 100.97C83.1853 100.54 83.5153 100.205 83.9353 99.965C84.3653 99.725 84.8553 99.605 85.4053 99.605C85.9553 99.605 86.4403 99.725 86.8603 99.965C87.2903 100.205 87.6253 100.535 87.8653 100.955C88.1053 101.375 88.2253 101.86 88.2253 102.41V107H86.2603ZM81.3853 107V96.155H83.3503V107H81.3853ZM93.5132 107.15C92.7832 107.15 92.1232 106.985 91.5332 106.655C90.9532 106.315 90.4882 105.86 90.1382 105.29C89.7982 104.71 89.6282 104.065 89.6282 103.355C89.6282 102.645 89.7982 102.01 90.1382 101.45C90.4782 100.88 90.9432 100.43 91.5332 100.1C92.1232 99.76 92.7782 99.59 93.4982 99.59C94.2382 99.59 94.8982 99.76 95.4782 100.1C96.0682 100.43 96.5332 100.88 96.8732 101.45C97.2132 102.01 97.3832 102.645 97.3832 103.355C97.3832 104.065 97.2132 104.71 96.8732 105.29C96.5332 105.86 96.0682 106.315 95.4782 106.655C94.8982 106.985 94.2432 107.15 93.5132 107.15ZM93.4982 105.32C93.8682 105.32 94.1932 105.24 94.4732 105.08C94.7632 104.91 94.9832 104.68 95.1332 104.39C95.2932 104.09 95.3732 103.75 95.3732 103.37C95.3732 102.99 95.2932 102.655 95.1332 102.365C94.9732 102.075 94.7532 101.85 94.4732 101.69C94.1932 101.52 93.8682 101.435 93.4982 101.435C93.1382 101.435 92.8182 101.52 92.5382 101.69C92.2582 101.85 92.0382 102.075 91.8782 102.365C91.7182 102.655 91.6382 102.99 91.6382 103.37C91.6382 103.75 91.7182 104.09 91.8782 104.39C92.0382 104.68 92.2582 104.91 92.5382 105.08C92.8182 105.24 93.1382 105.32 93.4982 105.32ZM102.038 107.15C101.398 107.15 100.828 107.015 100.328 106.745C99.8382 106.475 99.4532 106.1 99.1732 105.62C98.8932 105.14 98.7532 104.585 98.7532 103.955V99.755H100.733V103.91C100.733 104.21 100.783 104.47 100.883 104.69C100.983 104.9 101.133 105.06 101.333 105.17C101.533 105.28 101.768 105.335 102.038 105.335C102.448 105.335 102.768 105.21 102.998 104.96C103.228 104.71 103.343 104.36 103.343 103.91V99.755H105.308V103.955C105.308 104.595 105.168 105.155 104.888 105.635C104.618 106.115 104.233 106.49 103.733 106.76C103.243 107.02 102.678 107.15 102.038 107.15ZM110.233 107.15C109.563 107.15 108.963 106.985 108.433 106.655C107.903 106.325 107.483 105.875 107.173 105.305C106.873 104.735 106.723 104.095 106.723 103.385C106.723 102.665 106.873 102.02 107.173 101.45C107.483 100.88 107.898 100.43 108.418 100.1C108.948 99.77 109.553 99.605 110.233 99.605C110.753 99.605 111.218 99.71 111.628 99.92C112.048 100.13 112.383 100.425 112.633 100.805C112.893 101.175 113.033 101.595 113.053 102.065V104.645C113.033 105.115 112.898 105.54 112.648 105.92C112.398 106.3 112.063 106.6 111.643 106.82C111.223 107.04 110.753 107.15 110.233 107.15ZM110.563 105.335C110.933 105.335 111.253 105.255 111.523 105.095C111.803 104.925 112.018 104.695 112.168 104.405C112.328 104.105 112.408 103.76 112.408 103.37C112.408 102.99 112.328 102.655 112.168 102.365C112.018 102.065 111.803 101.835 111.523 101.675C111.253 101.505 110.938 101.42 110.578 101.42C110.208 101.42 109.883 101.505 109.603 101.675C109.333 101.845 109.118 102.075 108.958 102.365C108.808 102.655 108.733 102.99 108.733 103.37C108.733 103.76 108.808 104.105 108.958 104.405C109.118 104.695 109.338 104.925 109.618 105.095C109.898 105.255 110.213 105.335 110.563 105.335ZM114.253 107H112.303V105.05L112.618 103.28L112.288 101.54V96.155H114.253V107Z" fill="white"/>
<path d="M28.1525 75V67.665H30.7625V75H28.1525ZM32.7575 75V70.755C32.7575 70.445 32.6625 70.205 32.4725 70.035C32.2825 69.855 32.0475 69.765 31.7675 69.765C31.5675 69.765 31.3925 69.805 31.2425 69.885C31.0925 69.965 30.9725 70.08 30.8825 70.23C30.8025 70.37 30.7625 70.545 30.7625 70.755L29.7425 70.35C29.7425 69.76 29.8725 69.255 30.1325 68.835C30.3925 68.415 30.7425 68.09 31.1825 67.86C31.6225 67.63 32.1225 67.515 32.6825 67.515C33.1825 67.515 33.6325 67.635 34.0325 67.875C34.4425 68.105 34.7675 68.43 35.0075 68.85C35.2475 69.27 35.3675 69.765 35.3675 70.335V75H32.7575ZM37.3625 75V70.755C37.3625 70.445 37.2675 70.205 37.0775 70.035C36.8875 69.855 36.6525 69.765 36.3725 69.765C36.1825 69.765 36.0075 69.805 35.8475 69.885C35.6975 69.965 35.5775 70.08 35.4875 70.23C35.4075 70.37 35.3675 70.545 35.3675 70.755L33.8375 70.68C33.8575 70.02 34.0025 69.455 34.2725 68.985C34.5425 68.515 34.9125 68.155 35.3825 67.905C35.8625 67.645 36.4025 67.515 37.0025 67.515C37.5725 67.515 38.0825 67.635 38.5325 67.875C38.9825 68.115 39.3325 68.465 39.5825 68.925C39.8425 69.375 39.9725 69.915 39.9725 70.545V75H37.3625ZM41.6211 75V67.665H44.2461V75H41.6211ZM42.9261 66.81C42.5361 66.81 42.2111 66.68 41.9511 66.42C41.6911 66.15 41.5611 65.815 41.5611 65.415C41.5611 65.025 41.6911 64.695 41.9511 64.425C42.2111 64.155 42.5361 64.02 42.9261 64.02C43.3361 64.02 43.6661 64.155 43.9161 64.425C44.1761 64.695 44.3061 65.025 44.3061 65.415C44.3061 65.815 44.1761 66.15 43.9161 66.42C43.6661 66.68 43.3361 66.81 42.9261 66.81ZM46.067 75V64.065H48.677V75H46.067ZM50.4975 75V67.665H53.1225V75H50.4975ZM51.8025 66.81C51.4125 66.81 51.0875 66.68 50.8275 66.42C50.5675 66.15 50.4375 65.815 50.4375 65.415C50.4375 65.025 50.5675 64.695 50.8275 64.425C51.0875 64.155 51.4125 64.02 51.8025 64.02C52.2125 64.02 52.5425 64.155 52.7925 64.425C53.0525 64.695 53.1825 65.025 53.1825 65.415C53.1825 65.815 53.0525 66.15 52.7925 66.42C52.5425 66.68 52.2125 66.81 51.8025 66.81ZM58.6483 75.165C57.8283 75.165 57.1033 75.005 56.4733 74.685C55.8433 74.355 55.3483 73.9 54.9883 73.32C54.6283 72.74 54.4483 72.075 54.4483 71.325C54.4483 70.585 54.6233 69.93 54.9733 69.36C55.3233 68.78 55.7983 68.325 56.3983 67.995C57.0083 67.655 57.6933 67.485 58.4533 67.485C59.1933 67.485 59.8483 67.645 60.4183 67.965C60.9983 68.275 61.4483 68.71 61.7683 69.27C62.0983 69.82 62.2633 70.45 62.2633 71.16C62.2633 71.31 62.2533 71.465 62.2333 71.625C62.2233 71.775 62.1933 71.95 62.1433 72.15L55.6783 72.18V70.5L61.1083 70.455L59.9383 71.19C59.9283 70.78 59.8683 70.445 59.7583 70.185C59.6483 69.915 59.4883 69.71 59.2783 69.57C59.0683 69.43 58.8033 69.36 58.4833 69.36C58.1533 69.36 57.8683 69.44 57.6283 69.6C57.3883 69.76 57.2033 69.985 57.0733 70.275C56.9433 70.565 56.8783 70.915 56.8783 71.325C56.8783 71.745 56.9483 72.105 57.0883 72.405C57.2283 72.695 57.4283 72.915 57.6883 73.065C57.9483 73.215 58.2683 73.29 58.6483 73.29C59.0083 73.29 59.3233 73.23 59.5933 73.11C59.8733 72.99 60.1233 72.805 60.3433 72.555L61.7083 73.92C61.3483 74.33 60.9083 74.64 60.3883 74.85C59.8783 75.06 59.2983 75.165 58.6483 75.165ZM66.909 75.165C66.219 75.165 65.604 75.03 65.064 74.76C64.534 74.48 64.114 74.095 63.804 73.605C63.504 73.105 63.354 72.54 63.354 71.91V67.665H65.964V71.91C65.964 72.11 66.004 72.285 66.084 72.435C66.164 72.585 66.274 72.7 66.414 72.78C66.554 72.86 66.719 72.9 66.909 72.9C67.189 72.9 67.414 72.81 67.584 72.63C67.764 72.45 67.854 72.21 67.854 71.91V67.665H70.464V71.91C70.464 72.55 70.314 73.115 70.014 73.605C69.714 74.095 69.294 74.48 68.754 74.76C68.224 75.03 67.609 75.165 66.909 75.165ZM76.4611 75.15C75.9911 75.15 75.5561 75.06 75.1561 74.88C74.7561 74.69 74.4261 74.435 74.1661 74.115C73.9061 73.795 73.7461 73.445 73.6861 73.065V69.48C73.7461 69.1 73.9061 68.76 74.1661 68.46C74.4361 68.16 74.7711 67.93 75.1711 67.77C75.5711 67.6 76.0011 67.515 76.4611 67.515C77.1711 67.515 77.7961 67.68 78.3361 68.01C78.8761 68.33 79.2961 68.78 79.5961 69.36C79.9061 69.94 80.0611 70.6 80.0611 71.34C80.0611 72.07 79.9061 72.725 79.5961 73.305C79.2961 73.875 78.8761 74.325 78.3361 74.655C77.7961 74.985 77.1711 75.15 76.4611 75.15ZM72.0961 75V64.065H74.7061V69.465L74.2711 71.235L74.6461 73.035V75H72.0961ZM75.9961 72.825C76.2761 72.825 76.5211 72.76 76.7311 72.63C76.9511 72.5 77.1211 72.325 77.2411 72.105C77.3611 71.875 77.4211 71.615 77.4211 71.325C77.4211 71.045 77.3611 70.795 77.2411 70.575C77.1211 70.345 76.9511 70.165 76.7311 70.035C76.5111 69.905 76.2611 69.84 75.9811 69.84C75.7011 69.84 75.4511 69.905 75.2311 70.035C75.0211 70.165 74.8561 70.34 74.7361 70.56C74.6161 70.78 74.5561 71.035 74.5561 71.325C74.5561 71.625 74.6161 71.89 74.7361 72.12C74.8561 72.34 75.0261 72.515 75.2461 72.645C75.4661 72.765 75.7161 72.825 75.9961 72.825ZM85.1391 75.165C84.3191 75.165 83.5941 75.005 82.9641 74.685C82.3341 74.355 81.8391 73.9 81.4791 73.32C81.1191 72.74 80.9391 72.075 80.9391 71.325C80.9391 70.585 81.1141 69.93 81.4641 69.36C81.8141 68.78 82.2891 68.325 82.8891 67.995C83.4991 67.655 84.1841 67.485 84.9441 67.485C85.6841 67.485 86.3391 67.645 86.9091 67.965C87.4891 68.275 87.9391 68.71 88.2591 69.27C88.5891 69.82 88.7541 70.45 88.7541 71.16C88.7541 71.31 88.7441 71.465 88.7241 71.625C88.7141 71.775 88.6841 71.95 88.6341 72.15L82.1691 72.18V70.5L87.5991 70.455L86.4291 71.19C86.4191 70.78 86.3591 70.445 86.2491 70.185C86.1391 69.915 85.9791 69.71 85.7691 69.57C85.5591 69.43 85.2941 69.36 84.9741 69.36C84.6441 69.36 84.3591 69.44 84.1191 69.6C83.8791 69.76 83.6941 69.985 83.5641 70.275C83.4341 70.565 83.3691 70.915 83.3691 71.325C83.3691 71.745 83.4391 72.105 83.5791 72.405C83.7191 72.695 83.9191 72.915 84.1791 73.065C84.4391 73.215 84.7591 73.29 85.1391 73.29C85.4991 73.29 85.8141 73.23 86.0841 73.11C86.3641 72.99 86.6141 72.805 86.8341 72.555L88.1991 73.92C87.8391 74.33 87.3991 74.64 86.8791 74.85C86.3691 75.06 85.7891 75.165 85.1391 75.165ZM91.5569 75L89.2319 67.665H91.7519L93.1319 73.005L92.3819 73.02L94.0169 67.665H96.3419L97.9769 73.02L97.2269 73.005L98.6219 67.665H101.142L98.8169 75H96.4619L94.9019 69.93H95.4869L93.8819 75H91.5569ZM105.609 75.165C104.919 75.165 104.304 75.03 103.764 74.76C103.234 74.48 102.814 74.095 102.504 73.605C102.204 73.105 102.054 72.54 102.054 71.91V67.665H104.664V71.91C104.664 72.11 104.704 72.285 104.784 72.435C104.864 72.585 104.974 72.7 105.114 72.78C105.254 72.86 105.419 72.9 105.609 72.9C105.889 72.9 106.114 72.81 106.284 72.63C106.464 72.45 106.554 72.21 106.554 71.91V67.665H109.164V71.91C109.164 72.55 109.014 73.115 108.714 73.605C108.414 74.095 107.994 74.48 107.454 74.76C106.924 75.03 106.309 75.165 105.609 75.165ZM113.586 75.21C113.136 75.21 112.691 75.15 112.251 75.03C111.821 74.91 111.416 74.75 111.036 74.55C110.666 74.34 110.351 74.1 110.091 73.83L111.516 72.375C111.756 72.625 112.041 72.82 112.371 72.96C112.711 73.1 113.071 73.17 113.451 73.17C113.671 73.17 113.836 73.14 113.946 73.08C114.066 73.02 114.126 72.935 114.126 72.825C114.126 72.665 114.041 72.545 113.871 72.465C113.711 72.375 113.496 72.3 113.226 72.24C112.966 72.17 112.691 72.09 112.401 72C112.111 71.9 111.831 71.77 111.561 71.61C111.291 71.45 111.071 71.225 110.901 70.935C110.741 70.645 110.661 70.275 110.661 69.825C110.661 69.355 110.786 68.945 111.036 68.595C111.296 68.235 111.656 67.955 112.116 67.755C112.576 67.545 113.116 67.44 113.736 67.44C114.366 67.44 114.966 67.55 115.536 67.77C116.106 67.98 116.566 68.3 116.916 68.73L115.476 70.185C115.236 69.915 114.971 69.73 114.681 69.63C114.391 69.52 114.126 69.465 113.886 69.465C113.656 69.465 113.491 69.5 113.391 69.57C113.291 69.63 113.241 69.715 113.241 69.825C113.241 69.955 113.321 70.06 113.481 70.14C113.651 70.22 113.866 70.295 114.126 70.365C114.396 70.425 114.671 70.505 114.951 70.605C115.241 70.705 115.516 70.845 115.776 71.025C116.046 71.195 116.261 71.425 116.421 71.715C116.591 72.005 116.676 72.38 116.676 72.84C116.676 73.57 116.396 74.15 115.836 74.58C115.276 75 114.526 75.21 113.586 75.21ZM119.162 75V64.635H121.772V75H119.162ZM117.542 69.84V67.665H123.392V69.84H117.542ZM33.3185 91.165C32.4985 91.165 31.7735 91.005 31.1435 90.685C30.5135 90.355 30.0185 89.9 29.6585 89.32C29.2985 88.74 29.1185 88.075 29.1185 87.325C29.1185 86.585 29.2935 85.93 29.6435 85.36C29.9935 84.78 30.4685 84.325 31.0685 83.995C31.6785 83.655 32.3635 83.485 33.1235 83.485C33.8635 83.485 34.5185 83.645 35.0885 83.965C35.6685 84.275 36.1185 84.71 36.4385 85.27C36.7685 85.82 36.9335 86.45 36.9335 87.16C36.9335 87.31 36.9235 87.465 36.9035 87.625C36.8935 87.775 36.8635 87.95 36.8135 88.15L30.3485 88.18V86.5L35.7785 86.455L34.6085 87.19C34.5985 86.78 34.5385 86.445 34.4285 86.185C34.3185 85.915 34.1585 85.71 33.9485 85.57C33.7385 85.43 33.4735 85.36 33.1535 85.36C32.8235 85.36 32.5385 85.44 32.2985 85.6C32.0585 85.76 31.8735 85.985 31.7435 86.275C31.6135 86.565 31.5485 86.915 31.5485 87.325C31.5485 87.745 31.6185 88.105 31.7585 88.405C31.8985 88.695 32.0985 88.915 32.3585 89.065C32.6185 89.215 32.9385 89.29 33.3185 89.29C33.6785 89.29 33.9935 89.23 34.2635 89.11C34.5435 88.99 34.7935 88.805 35.0135 88.555L36.3785 89.92C36.0185 90.33 35.5785 90.64 35.0585 90.85C34.5485 91.06 33.9685 91.165 33.3185 91.165ZM42.9742 91V86.86C42.9742 86.52 42.8742 86.255 42.6742 86.065C42.4742 85.865 42.2192 85.765 41.9092 85.765C41.6992 85.765 41.5092 85.81 41.3392 85.9C41.1792 85.99 41.0542 86.115 40.9642 86.275C40.8742 86.435 40.8292 86.63 40.8292 86.86L39.8092 86.38C39.8092 85.79 39.9392 85.285 40.1992 84.865C40.4592 84.435 40.8142 84.105 41.2642 83.875C41.7242 83.635 42.2442 83.515 42.8242 83.515C43.3542 83.515 43.8242 83.64 44.2342 83.89C44.6542 84.13 44.9842 84.455 45.2242 84.865C45.4642 85.275 45.5842 85.74 45.5842 86.26V91H42.9742ZM38.2192 91V83.665H40.8292V91H38.2192ZM53.4829 91.15C52.7729 91.15 52.1479 90.985 51.6079 90.655C51.0679 90.325 50.6429 89.875 50.3329 89.305C50.0329 88.725 49.8829 88.07 49.8829 87.34C49.8829 86.6 50.0329 85.94 50.3329 85.36C50.6429 84.78 51.0629 84.33 51.5929 84.01C52.1329 83.68 52.7629 83.515 53.4829 83.515C53.9429 83.515 54.3729 83.6 54.7729 83.77C55.1729 83.93 55.5079 84.16 55.7779 84.46C56.0479 84.76 56.2079 85.1 56.2579 85.48V89.065C56.2079 89.445 56.0479 89.795 55.7779 90.115C55.5079 90.435 55.1729 90.69 54.7729 90.88C54.3729 91.06 53.9429 91.15 53.4829 91.15ZM53.9479 88.825C54.2379 88.825 54.4879 88.765 54.6979 88.645C54.9079 88.515 55.0729 88.34 55.1929 88.12C55.3229 87.89 55.3879 87.625 55.3879 87.325C55.3879 87.035 55.3279 86.78 55.2079 86.56C55.0879 86.34 54.9179 86.165 54.6979 86.035C54.4879 85.905 54.2429 85.84 53.9629 85.84C53.6829 85.84 53.4329 85.905 53.2129 86.035C53.0029 86.165 52.8329 86.345 52.7029 86.575C52.5829 86.795 52.5229 87.045 52.5229 87.325C52.5229 87.615 52.5829 87.875 52.7029 88.105C52.8229 88.325 52.9929 88.5 53.2129 88.63C53.4329 88.76 53.6779 88.825 53.9479 88.825ZM57.8479 91H55.2829V89.035L55.6579 87.235L55.2379 85.465V80.065H57.8479V91ZM63.031 91.165C62.341 91.165 61.726 91.03 61.186 90.76C60.656 90.48 60.236 90.095 59.926 89.605C59.626 89.105 59.476 88.54 59.476 87.91V83.665H62.086V87.91C62.086 88.11 62.126 88.285 62.206 88.435C62.286 88.585 62.396 88.7 62.536 88.78C62.676 88.86 62.841 88.9 63.031 88.9C63.311 88.9 63.536 88.81 63.706 88.63C63.886 88.45 63.976 88.21 63.976 87.91V83.665H66.586V87.91C66.586 88.55 66.436 89.115 66.136 89.605C65.836 90.095 65.416 90.48 64.876 90.76C64.346 91.03 63.731 91.165 63.031 91.165ZM71.578 91.165C70.888 91.165 70.273 91.03 69.733 90.76C69.203 90.48 68.783 90.095 68.473 89.605C68.173 89.105 68.023 88.54 68.023 87.91V83.665H70.633V87.91C70.633 88.11 70.673 88.285 70.753 88.435C70.833 88.585 70.943 88.7 71.083 88.78C71.223 88.86 71.388 88.9 71.578 88.9C71.858 88.9 72.083 88.81 72.253 88.63C72.433 88.45 72.523 88.21 72.523 87.91V83.665H75.133V87.91C75.133 88.55 74.983 89.115 74.683 89.605C74.383 90.095 73.963 90.48 73.423 90.76C72.893 91.03 72.278 91.165 71.578 91.165ZM76.7651 91V83.665H79.3751V91H76.7651ZM79.3751 87.01L78.2051 86.02C78.4951 85.19 78.8801 84.565 79.3601 84.145C79.8401 83.725 80.4651 83.515 81.2351 83.515C81.5851 83.515 81.8851 83.56 82.1351 83.65C82.3951 83.74 82.6151 83.88 82.7951 84.07L81.2801 86.095C81.2001 86.005 81.0851 85.935 80.9351 85.885C80.7951 85.825 80.6351 85.795 80.4551 85.795C80.1151 85.795 79.8501 85.9 79.6601 86.11C79.4701 86.31 79.3751 86.61 79.3751 87.01ZM83.0022 89.44L86.4822 85.225H89.7072L86.2272 89.44H83.0022ZM83.0022 91V89.44L84.6972 88.87H89.6172V91H83.0022ZM83.2572 85.795V83.665H89.7072V85.225L88.0122 85.795H83.2572ZM94.0481 91.15C93.3681 91.15 92.7631 90.985 92.2331 90.655C91.7031 90.325 91.2881 89.875 90.9881 89.305C90.6881 88.725 90.5381 88.07 90.5381 87.34C90.5381 86.6 90.6881 85.94 90.9881 85.36C91.2881 84.78 91.7031 84.33 92.2331 84.01C92.7631 83.68 93.3681 83.515 94.0481 83.515C94.5081 83.515 94.9281 83.6 95.3081 83.77C95.6881 83.93 95.9981 84.16 96.2381 84.46C96.4881 84.76 96.6381 85.1 96.6881 85.48V89.17C96.6381 89.56 96.4881 89.905 96.2381 90.205C95.9981 90.495 95.6881 90.725 95.3081 90.895C94.9281 91.065 94.5081 91.15 94.0481 91.15ZM94.6031 88.825C95.0331 88.825 95.3781 88.685 95.6381 88.405C95.9081 88.125 96.0431 87.765 96.0431 87.325C96.0431 87.035 95.9831 86.78 95.8631 86.56C95.7431 86.34 95.5731 86.165 95.3531 86.035C95.1431 85.905 94.8981 85.84 94.6181 85.84C94.3381 85.84 94.0881 85.905 93.8681 86.035C93.6581 86.165 93.4881 86.345 93.3581 86.575C93.2381 86.795 93.1781 87.045 93.1781 87.325C93.1781 87.615 93.2381 87.875 93.3581 88.105C93.4781 88.325 93.6481 88.5 93.8681 88.63C94.0881 88.76 94.3331 88.825 94.6031 88.825ZM95.9381 91V89.035L96.3131 87.235L95.9381 85.465V83.665H98.5031V91H95.9381ZM103.386 91.15C102.706 91.15 102.101 90.985 101.571 90.655C101.041 90.325 100.626 89.875 100.326 89.305C100.026 88.725 99.8762 88.07 99.8762 87.34C99.8762 86.6 100.026 85.94 100.326 85.36C100.626 84.78 101.041 84.33 101.571 84.01C102.101 83.68 102.706 83.515 103.386 83.515C103.846 83.515 104.266 83.6 104.646 83.77C105.026 83.93 105.336 84.16 105.576 84.46C105.826 84.76 105.976 85.1 106.026 85.48V89.17C105.976 89.56 105.826 89.905 105.576 90.205C105.336 90.495 105.026 90.725 104.646 90.895C104.266 91.065 103.846 91.15 103.386 91.15ZM103.941 88.825C104.371 88.825 104.716 88.685 104.976 88.405C105.246 88.125 105.381 87.765 105.381 87.325C105.381 87.035 105.321 86.78 105.201 86.56C105.081 86.34 104.911 86.165 104.691 86.035C104.481 85.905 104.236 85.84 103.956 85.84C103.676 85.84 103.426 85.905 103.206 86.035C102.996 86.165 102.826 86.345 102.696 86.575C102.576 86.795 102.516 87.045 102.516 87.325C102.516 87.615 102.576 87.875 102.696 88.105C102.816 88.325 102.986 88.5 103.206 88.63C103.426 88.76 103.671 88.825 103.941 88.825ZM105.276 91V89.035L105.651 87.235L105.276 85.465V83.665H107.841V91H105.276ZM109.664 91V83.665H112.274V91H109.664ZM114.269 91V86.755C114.269 86.445 114.174 86.205 113.984 86.035C113.794 85.855 113.559 85.765 113.279 85.765C113.079 85.765 112.904 85.805 112.754 85.885C112.604 85.965 112.484 86.08 112.394 86.23C112.314 86.37 112.274 86.545 112.274 86.755L111.254 86.35C111.254 85.76 111.384 85.255 111.644 84.835C111.904 84.415 112.254 84.09 112.694 83.86C113.134 83.63 113.634 83.515 114.194 83.515C114.694 83.515 115.144 83.635 115.544 83.875C115.954 84.105 116.279 84.43 116.519 84.85C116.759 85.27 116.879 85.765 116.879 86.335V91H114.269ZM118.874 91V86.755C118.874 86.445 118.779 86.205 118.589 86.035C118.399 85.855 118.164 85.765 117.884 85.765C117.694 85.765 117.519 85.805 117.359 85.885C117.209 85.965 117.089 86.08 116.999 86.23C116.919 86.37 116.879 86.545 116.879 86.755L115.349 86.68C115.369 86.02 115.514 85.455 115.784 84.985C116.054 84.515 116.424 84.155 116.894 83.905C117.374 83.645 117.914 83.515 118.514 83.515C119.084 83.515 119.594 83.635 120.044 83.875C120.494 84.115 120.844 84.465 121.094 84.925C121.354 85.375 121.484 85.915 121.484 86.545V91H118.874Z" fill="#121211"/>
<path d="M74.1112 28.641C74.0491 28.7174 73.9893 28.7741 73.941 28.7675C73.5751 28.7086 73.5314 28.3356 73.8075 28.6912C73.8581 28.7566 73.8742 28.8439 73.8834 28.9377C78.4297 31.265 84.6786 32.0852 86.5744 36.0877C84.0689 37.6866 81.0434 38.4675 78.1053 37.7062C71.2882 35.9394 68.3133 29.8887 68.1131 23.6831C67.913 23.3755 67.9659 22.8171 68.3731 23.0592C71.3664 25.1161 74.4678 23.5151 80.0311 24.789C84.3174 25.7705 87.497 29.4175 86.9357 33.6666C84.9846 32.0699 82.9162 30.8746 80.4958 30.2595L74.1135 28.6388L74.1112 28.641Z" fill="white"/>
</svg>
