<svg viewBox="0 0 513 848" fill="none" xmlns="http://www.w3.org/2000/svg">
<path d="M490.116 954.715C510.75 905.535 534.181 857.657 558.996 810.474L558.996 823.643C536.724 866.229 515.696 909.433 496.932 953.703C455.513 1051.44 424.438 1156.49 428.549 1263.06C432.718 1371.23 474.796 1471.27 542.137 1555.97L537.066 1555.97C470.233 1472.1 428.045 1373.06 423.055 1265.9C418.068 1158.83 448.844 1053.08 490.116 954.715Z" fill="url(#paint0_linear_233_1277)"/>
<path d="M469.055 961.037C495.257 896.592 526.298 834.353 558.996 772.964L558.996 785.776C528.922 842.344 500.453 899.729 476.062 958.985C435.099 1058.51 405.044 1165.59 412.018 1273.57C418.756 1377.9 460.889 1474.25 526.103 1555.97L521.176 1555.97C456.311 1474.85 414.086 1379.24 406.73 1275.65C399.068 1167.81 428.549 1060.66 469.055 961.037Z" fill="url(#paint1_linear_233_1277)"/>
<path d="M448.046 967.895C479.507 887.894 518.526 811.236 558.996 735.405L558.996 747.978C521.316 818.458 485.2 889.788 455.527 964.004C414.907 1065.61 385.938 1175 396.017 1284.62C405.236 1384.88 447.244 1477.35 510.202 1555.97L505.403 1555.97C443.162 1478.38 401.18 1387.23 391.13 1288.32C380.02 1178.98 408.069 1069.56 448.049 967.895L448.046 967.895Z" fill="url(#paint2_linear_233_1277)"/>
<path d="M422.528 987.637C459.425 887.244 509.032 792.102 558.996 697.645L558.996 710.104C511.95 798.56 465.784 887.777 430.492 981.598C391.822 1084.39 366.518 1194.95 381.654 1304.44C394.486 1397.28 435.64 1482.84 494.418 1555.97L489.755 1555.97C432.468 1484.8 391.678 1401.75 377.654 1311.59C360.615 1202.06 384.55 1090.99 422.532 987.637L422.528 987.637Z" fill="url(#paint3_linear_233_1277)"/>
<path d="M397.618 1007.53C436.019 894.845 491.618 788.752 546.45 683.419C550.631 675.388 554.815 667.36 558.996 659.324L558.996 671.751C557.943 673.759 556.891 675.767 555.838 677.774C500.648 783.059 444.561 888.954 405.232 1001.44C368.663 1106.03 347.937 1218.13 369.09 1327.65C385.327 1411.72 424.92 1489.19 478.763 1555.97L474.24 1555.97C421.862 1491.09 382.802 1416.08 365.649 1334.67C342.59 1225.23 361.778 1112.7 397.614 1007.54L397.618 1007.53Z" fill="url(#paint4_linear_233_1277)"/>
<path d="M517.187 702.116C531.134 674.833 545.162 647.564 558.996 620.195L558.996 632.725C547.874 654.466 536.658 676.16 525.492 697.861C471.605 802.565 417.321 908.371 381.006 1020.74C346.421 1127.75 330.652 1241.82 358.26 1351.63C377.102 1426.57 414.524 1495.71 463.241 1555.97L458.854 1555.97C411.503 1497.09 374.555 1430.37 355.121 1357.54C294.338 1129.73 415.812 900.439 517.187 702.116Z" fill="url(#paint5_linear_233_1277)"/>
<path d="M487.636 722.696C511.508 675.09 535.786 627.591 558.996 579.617L558.996 592.433C538.509 634.078 517.334 675.406 496.431 716.801C395.579 916.506 278.635 1147.32 348.707 1374.42C369.182 1440.79 404.165 1501.72 447.843 1555.97L443.586 1555.97C401.335 1503.58 367.155 1444.94 346.351 1381.16C272.412 1154.48 387.123 923.107 487.636 722.699L487.636 722.696Z" fill="url(#paint6_linear_233_1277)"/>
<path d="M327.355 1069.06C356.313 954.862 407.598 847.338 459.351 742.054C492.876 673.854 527.531 605.996 558.996 536.803L558.996 550.163C529.908 612.718 498.459 674.269 467.859 736.063C415.4 842.006 363.261 950.096 333.328 1064.97C304.671 1174.97 301.304 1289.81 340.621 1397.01C361.789 1454.73 393.839 1507.97 432.593 1555.97L428.468 1555.97C391.149 1509.81 360.004 1458.81 338.778 1403.6C297.418 1296.04 299.151 1180.29 327.355 1069.07L327.355 1069.06Z" fill="url(#paint7_linear_233_1277)"/>
<path d="M291.633 1265.55C287.18 1207.23 293.605 1148.7 305.926 1091.87C330.891 976.703 380.579 867.668 431.57 761.67C474.818 671.769 520.565 582.695 558.996 490.654L558.996 504.904C522.464 589.848 480.121 672.409 439.788 755.613C388.418 861.585 338.137 970.378 311.994 1085.41C299.129 1142.02 291.982 1200.36 295.548 1258.65C298.945 1314.17 312.315 1368.5 333.997 1419.39C354.959 1468.59 383.707 1514.25 417.476 1555.97L413.479 1555.97C381.15 1516.08 353.399 1472.59 332.647 1425.84C310.184 1375.23 295.872 1321.08 291.633 1265.55L291.633 1265.55Z" fill="url(#paint8_linear_233_1277)"/>
<path d="M278.064 1280.87C271.889 1225.12 275.378 1168.55 285.432 1113.37C306.511 997.673 354.4 887.711 404.297 781.503C450.309 683.563 499.979 586.925 540.673 486.679C546.999 471.097 553.133 455.409 558.996 439.61L558.996 455.247C555.625 463.963 552.18 472.645 548.677 481.291C508.123 581.364 458.464 677.793 412.228 775.391C361.922 881.588 313.389 991.333 291.073 1106.97C280.442 1162.06 276.217 1218.62 281.601 1274.47C287.195 1332.52 303.298 1389.07 328.812 1441.54C348.662 1482.37 373.79 1520.58 402.502 1555.97L398.63 1555.97C371.372 1522.41 347.33 1486.31 327.94 1447.86C301.58 1395.56 284.504 1339.06 278.061 1280.88L278.064 1280.87Z" fill="url(#paint9_linear_233_1277)"/>
<path d="M264.684 1296.39C256.676 1241.5 258.218 1185.49 266.597 1130.66C284.118 1016.07 329.43 906.643 377.554 801.513C423.47 701.212 473.968 602.584 515.556 500.429C531.664 460.863 546.623 420.645 558.996 379.725L558.996 398.374C547.941 432.299 535.256 465.739 521.772 498.727C480.622 599.399 430.812 696.611 385.198 795.364C336.629 900.516 290.632 1009.75 271.86 1124.32C262.888 1179.08 260.614 1235.09 267.845 1290.1C275.845 1350.95 295.585 1409.62 325.059 1463.47C342.918 1496.11 364.096 1526.99 387.66 1555.97L383.914 1555.97C361.815 1528.82 341.806 1500.01 324.65 1469.65C294.323 1415.98 273.578 1357.38 264.68 1296.4L264.684 1296.39Z" fill="url(#paint10_linear_233_1277)"/>
<path d="M252.996 1316.93C242.467 1262.28 241.628 1206.09 248.171 1150.83C261.78 1035.91 305.061 925.585 352.004 820.205C397.184 718.779 447.748 619.408 489.873 516.679C519.152 445.276 544.986 371.931 558.996 296.115L558.996 324.502C544.345 388.903 521.838 451.547 496.748 512.73C454.707 615.252 404.128 714.395 358.709 815.494C311.402 920.797 267.539 1030.89 252.878 1145.75C245.838 1200.9 246.037 1257.05 255.907 1311.77C266.995 1373.24 290.223 1431.84 322.722 1485.19C337.751 1509.86 354.646 1533.49 372.962 1555.97L369.341 1555.97C352.291 1535.06 336.463 1513.16 322.225 1490.36C288.979 1437.13 264.871 1378.55 253 1316.93L252.996 1316.93Z" fill="url(#paint11_linear_233_1277)"/>
<path d="M550.752 249.193C540.301 347.001 507.891 440.455 470.409 530.988C427.813 633.879 377.249 733.639 332.779 835.746C285.774 943.678 243.284 1057.52 234.257 1175.4C229.992 1231.1 233.723 1287.35 247.214 1341.58C261.887 1400.56 287.883 1456.22 321.783 1506.67C333.173 1523.63 345.442 1540.08 358.4 1555.97L354.9 1555.97C343.219 1541.67 332.095 1526.9 321.673 1511.73C287.47 1461.95 260.849 1407.02 245.33 1348.67C230.404 1292.55 226.006 1234.16 230.286 1176.28C238.894 1059.83 280.254 947.238 326.339 840.483C370.544 738.078 421.056 638.119 463.73 535.078C501.366 444.209 534.001 350.447 544.621 252.29C553.707 168.317 546.373 79.6622 516.3 0.00292803L523.156 0.00292833C552.489 78.7612 559.61 166.29 550.752 249.193Z" fill="url(#paint12_linear_233_1277)"/>
<path d="M528.171 264.804C516.27 363.708 482.586 458.026 444.325 549.597C401.22 652.752 350.815 753.038 307.434 856.098C262.45 962.971 223.084 1076.12 217.888 1192.5C215.286 1250.74 221.807 1309.16 238.831 1364.96C256.742 1423.66 285.869 1478.49 322.236 1527.94C329.224 1537.45 336.499 1546.81 343.985 1555.97L340.603 1555.97C334.409 1548.39 328.352 1540.68 322.493 1532.88C285.435 1483.53 255.505 1428.73 236.818 1369.93C219.121 1314.25 211.904 1255.82 213.943 1197.47C218.013 1081.12 256.679 967.77 301.256 860.845C344.323 757.536 394.663 657.065 437.83 553.804C476.235 461.931 510.146 367.345 522.29 268.151C533.205 178.97 525.809 84.3473 492.603 0.00292793L499.08 0.00292822C531.52 83.3617 538.762 176.76 528.171 264.804Z" fill="url(#paint13_linear_233_1277)"/>
<path d="M506.172 279.095C492.821 378.94 458.169 474.104 419.198 566.789C375.692 670.25 325.489 771.095 283.257 875.096C239.239 983.492 202.203 1098.89 202.251 1216.58C202.277 1279.02 212.695 1341.36 235.581 1399.89C256.62 1453.7 287.371 1503.14 323.391 1548.16C325.474 1550.77 327.568 1553.37 329.702 1555.97L326.435 1555.97C325.618 1554.98 324.808 1553.98 323.995 1552.98C287.455 1508.17 256.079 1458.93 234.323 1405.24C210.609 1346.72 199.348 1284.22 198.696 1221.48C197.471 1103.87 233.756 988.302 277.335 879.851C319.214 775.63 369.333 674.633 412.879 571.099C451.976 478.153 486.874 382.758 500.512 282.659C513.3 188.808 505.819 88.6427 469.625 0.00292785L475.742 0.00292811C511.136 87.602 518.563 186.443 506.172 279.095Z" fill="url(#paint14_linear_233_1277)"/>
<path d="M484.18 295.876C469.128 396.53 433.215 492.415 393.592 585.971C349.737 689.516 299.894 790.792 259.09 895.576C218.046 1000.98 184.981 1113.17 187.48 1226.92C188.848 1289.3 200.82 1351.33 224.924 1409.31C247.107 1462.66 278.741 1511.58 315.556 1555.97L312.402 1555.97C275.775 1511.87 244.303 1463.27 222.112 1410.3C198.556 1354.08 186.342 1293.96 184.226 1233.42C180.237 1119.23 212.64 1006.31 253.426 900.331C329.868 701.704 446.275 512.193 478.711 299.631C493.88 200.227 486.829 93.7729 447.295 0.00292776L453.094 0.00292802C491.823 92.6292 498.86 197.73 484.184 295.876L484.18 295.876Z" fill="url(#paint15_linear_233_1277)"/>
<path d="M462.7 311.215C445.006 419.39 404.386 522.67 360.733 623.107C318.596 720.062 272.942 815.685 236.075 914.685C197.836 1017.37 168.417 1126.53 173.098 1236.62C175.678 1297.31 188.477 1357.47 212.552 1413.64C234.702 1465.32 265.666 1512.8 301.55 1555.97L298.511 1555.97C263.274 1513.62 232.792 1467.11 210.708 1416.55C186.689 1361.56 173.426 1302.64 170.114 1243.08C163.964 1132.58 192.687 1022.7 230.669 919.429C267.374 819.631 313.12 723.291 355.463 625.678C398.866 525.623 439.445 422.81 457.408 315.139C474.848 210.594 468.312 98.4948 425.579 0.00292769L431.059 0.00292793C472.952 97.2923 479.58 207.994 462.696 311.215L462.7 311.215Z" fill="url(#paint16_linear_233_1277)"/>
<path d="M441.061 328.911C421.472 437.314 379.487 540.671 335.613 641.613C293.337 738.88 248.481 835.268 213.163 935.216C177.452 1036.27 151.662 1143.57 159.423 1251.04C163.571 1308.48 177.099 1365.2 200.511 1418.19C222.577 1468.13 252.794 1514.08 287.68 1555.97L284.751 1555.97C250.457 1514.83 220.663 1469.76 198.671 1420.84C174.751 1367.62 160.796 1310.58 156.376 1252.74C148.218 1145.92 173.334 1039.15 208.497 938.57C243.487 838.482 288.152 741.969 330.373 644.647C374.298 543.389 416.53 439.785 436.274 331.081C456.223 221.229 450.453 103.412 404.412 0.00292762L409.619 0.00292784C455.075 102.757 460.768 219.861 441.058 328.911L441.061 328.911Z" fill="url(#paint17_linear_233_1277)"/>
<path d="M419.897 345.085C398.553 454.323 355.04 558.309 310.798 660.335C268.699 757.418 224.913 854.068 191.377 954.369C158.492 1052.72 136.235 1156.89 145.906 1260.68C156.17 1370.78 203.124 1471.07 273.946 1555.97L271.124 1555.97C199.709 1470.45 152.589 1369.36 142.646 1258.36C133.523 1156.53 154.989 1054.31 186.935 957.715C221.885 852.049 269.203 750.688 312.988 648.357C354.709 550.847 394.814 451.553 415.279 347.391C437.929 232.096 433.256 108.531 383.777 0.00292755L388.716 0.00292776C437.554 107.836 442.268 230.614 419.897 345.085Z" fill="url(#paint18_linear_233_1277)"/>
<path d="M398.851 361.604C376.896 466.043 335.981 565.66 294.021 663.696C250.276 765.902 203.569 867.483 170.21 973.529C140.526 1067.89 121.802 1167.48 132.32 1266.29C143.816 1374.29 190.693 1472.64 260.345 1555.97L257.625 1555.97C188.474 1473.28 141.641 1375.77 129.652 1268.65C118.693 1170.74 136.589 1071.91 165.569 978.21C198.391 872.084 244.852 770.459 288.531 668.308C330.516 570.117 371.622 470.416 393.975 365.922C419.967 244.427 416.916 114.481 363.626 0.00292748L368.314 0.00292769C420.7 113.069 424.078 241.599 398.851 361.604Z" fill="url(#paint19_linear_233_1277)"/>
<path d="M377.9 378.44C354.318 483.243 312.531 583.312 270.387 682.084C226.805 784.224 180.955 886.143 149.685 992.682C122.781 1084.34 107.332 1180.74 119.472 1275.9C132.787 1380.26 179.332 1475.29 246.883 1555.97L244.263 1555.97C177.963 1476.88 131.727 1383.8 117.437 1281.64C104.034 1185.83 118.906 1088.53 145.685 996.006C176.557 889.332 222.245 787.273 265.762 685.103C307.905 586.155 349.81 485.931 373.58 380.989C402.251 254.401 400.635 119.306 343.937 0.00292742L348.393 0.00292761C404.407 118.523 406.185 252.742 377.904 378.44L377.9 378.44Z" fill="url(#paint20_linear_233_1277)"/>
<path d="M357.016 395.548C331.822 500.645 289.248 601.115 247.027 700.574C203.723 802.578 158.831 904.862 129.802 1011.81C105.297 1102.1 93.0092 1196.73 107.612 1289.54C123.211 1388.69 168.999 1479.02 233.543 1555.97L231.018 1555.97C166.813 1479.46 121.077 1389.71 105.179 1291.17C90.3117 1199.01 102.014 1104.95 126.012 1015.11C154.613 908.039 199.307 805.668 242.541 703.623C284.754 603.984 327.428 503.392 352.817 398.189C384.786 265.738 385.109 125.025 324.679 0.00292736L328.908 0.00292754C388.668 124.16 388.539 264.047 357.016 395.548Z" fill="url(#paint21_linear_233_1277)"/>
<path d="M336.191 412.9C309.433 518.217 266.167 619.007 223.96 719.154C181.029 821.022 137.218 923.622 110.589 1030.91C88.8474 1118.51 79.6325 1209.88 95.5782 1299.05C112.654 1394.56 157.863 1481.62 220.336 1555.97L217.91 1555.97C155.78 1482.05 110.641 1395.58 93.2929 1300.67C77.108 1212.12 85.7782 1121.33 107.016 1034.19C133.534 925.387 177.923 821.408 221.322 718.198C262.936 619.235 305.514 519.611 332.117 415.625C352.633 335.429 363.81 252.059 354.668 169.156C348.203 110.547 331.863 52.9492 305.83 -2.43195e-06L309.853 -2.25613e-06C335.352 52.096 351.445 108.69 358.017 166.28C367.479 249.183 356.589 332.626 336.195 412.896L336.191 412.9Z" fill="url(#paint22_linear_233_1277)"/>
<path d="M315.903 428.632C288.188 532.802 245.106 632.687 203.547 732.18C160.468 835.305 116.93 939.611 92.3433 1048.68C73.1592 1133.78 66.6897 1222.09 83.7762 1307.91C102.114 1400.01 146.705 1484.01 207.256 1555.97L204.931 1555.97C143.952 1483.53 99.1588 1398.96 80.9609 1306.14C64.5442 1222.43 70.4654 1136.31 88.6964 1053.22C112.624 944.182 155.795 839.869 198.704 736.857C240.189 637.27 283.364 537.395 311.45 433.265C334.104 349.27 347.511 261.763 338.241 174.536C331.8 113.93 314.6 54.5558 287.371 0.00683344L291.191 0.0068336C318.026 54.0005 334.995 112.72 341.49 172.638C350.834 258.884 338.027 345.479 315.903 428.635L315.903 428.632Z" fill="url(#paint23_linear_233_1277)"/>
<path d="M295.177 446.394C266.02 550.663 222.422 650.792 181.073 750.88C138.561 853.788 96.3326 958.451 74.4584 1067.7C58.2367 1148.7 54.3654 1232.32 71.5732 1313.34C90.6911 1403.36 134.896 1485.5 194.303 1555.97L192.069 1555.97C133.012 1485.92 88.9063 1404.37 69.5566 1314.96C52.1536 1234.53 55.554 1151.47 71.3046 1070.92C92.6747 961.632 134.66 856.885 177.036 753.987C218.312 653.77 261.972 553.568 291.327 449.262C315.767 362.417 331.274 271.806 322.269 181.228C315.998 118.159 297.907 56.5451 269.277 0.00292712L272.905 0.00292728C301.529 56.6996 319.48 118.537 325.611 181.747C334.285 271.166 319.163 360.615 295.177 446.39L295.177 446.394Z" fill="url(#paint24_linear_233_1277)"/>
<path d="M274.484 464.312C243.976 568.621 199.941 668.948 158.93 769.614C117.099 872.294 76.3057 977.306 57.2762 1086.66C43.6564 1164.92 42.3536 1245.27 60.5109 1322.77C80.7475 1409.16 124.139 1488.02 181.474 1555.97L179.329 1555.97C122.339 1488.45 79.0657 1410.16 58.6267 1324.37C40.3001 1247.45 41.1686 1167.65 54.3322 1089.85C72.8355 980.48 113.353 875.391 155.044 772.729C195.97 671.945 240.042 571.571 270.741 467.235C293.815 388.815 309.717 308.266 307.851 226.4C306.073 148.448 287.327 69.8255 251.531 -2.63989e-06L254.983 -2.489e-06C284.865 58.4655 303.725 122.186 309.728 187.599C318.328 281.336 300.664 374.811 274.487 464.308L274.484 464.312Z" fill="url(#paint25_linear_233_1277)"/>
<path d="M284.35 357.519C266.494 462.385 228.314 562.936 188.661 661.516C146.521 766.282 100.782 870.286 69.1848 978.719C41.4078 1074.04 25.1531 1174.43 38.3644 1273.29C52.4664 1378.82 100.027 1474.63 168.767 1555.97L166.71 1555.97C94.6434 1470.72 46.2581 1370.05 34.4525 1259.02C23.3682 1154.76 44.1421 1049.52 75.5256 950.038C109.128 843.514 154.761 740.969 195.808 637.094C235.096 537.671 271.808 435.822 285.789 329.651C300.527 217.714 286.738 101.39 234.147 -2.62087e-06L237.418 -2.47787e-06C294.573 110.433 304.944 236.595 284.354 357.516L284.35 357.519Z" fill="url(#paint26_linear_233_1277)"/>
<path d="M248.951 447.262C219.978 554.128 176.068 656.868 134.66 759.57C92.5197 864.086 51.34 970.867 31.4272 1082.23C21.2519 1139.13 17.2112 1197.3 22.9631 1254.92C28.9873 1315.26 45.9965 1373.91 72.3052 1428.18C94.5511 1474.08 123.266 1516.76 156.203 1555.97L154.238 1555.97C113.415 1507.41 79.139 1453.52 55.5094 1394.88C34.6362 1343.08 22.1424 1288.02 18.9297 1231.98C15.7391 1176.31 21.4359 1120.53 32.0786 1066.07C54.8986 949.284 100.605 837.667 145.233 727.484C187.064 624.204 230.014 520.1 255.303 411.579C278.267 313.032 285.406 211.095 259.936 112.308C249.915 73.4368 235.563 35.742 217.053 -2.70862e-06L220.166 -2.57253e-06C243.674 45.0168 260.205 93.6265 269.74 143.332C289.277 245.2 275.874 347.973 248.955 447.255L248.951 447.262Z" fill="url(#paint27_linear_233_1277)"/>
<path d="M263.164 255.585C261.898 345.802 240.465 433.75 212.471 519.327C175.656 631.863 126.13 740.148 85.2151 851.383C46.4273 956.829 11.3528 1067.27 7.84202 1179.93C5.79591 1245.58 14.8783 1311.1 36.7047 1373.1C60.3085 1440.15 97.8818 1501.45 143.801 1555.97L141.921 1555.97C91.5999 1496.63 51.5831 1428.69 28.6196 1354.59C7.35628 1285.98 1.65589 1213.9 8.04814 1142.44C18.2345 1028.59 56.5291 918.167 97.7972 811.897C140.033 703.138 187.826 595.662 221.163 483.853C244.995 403.929 261.806 321.858 260.47 238.315C259.156 156.063 239.093 73.1235 200.275 0.00292694L203.223 0.00292707C244.719 78.2904 264.397 167.614 263.16 255.585L263.164 255.585Z" fill="url(#paint28_linear_233_1277)"/>
<path d="M247.711 258.233C247.012 321.118 236.027 383.523 220.148 444.368C203.4 508.544 181.077 571.371 157.087 633.316C160.899 621.559 164.616 609.772 168.208 597.942C192.076 533.964 213.469 468.809 227.806 402.168C240.815 341.691 248.032 279.717 244.359 217.941C239.873 142.526 219.677 67.0482 183.807 0.00292689L186.615 0.00292702C228.84 79.0406 248.701 169.299 247.715 258.233L247.711 258.233Z" fill="url(#paint29_linear_233_1277)"/>
<path d="M204.037 450.605C205.354 442.706 206.587 434.795 207.724 426.866C227.295 344.092 237.415 258.623 225.337 173.925C216.659 113.065 196.864 54.0483 167.593 0.0068331L170.243 0.00683321C206.591 67.2875 227.32 143.078 231.674 218.979C236.163 297.237 223.883 374.726 204.029 450.609L204.037 450.605Z" fill="url(#paint30_linear_233_1277)"/>
<path d="M217.542 263.55C217.34 280.371 216.35 297.266 214.727 314.08C214.55 307.784 214.3 301.499 213.973 295.21C215.835 267.456 215.919 239.595 213.77 211.976C208.048 138.429 187.197 65.18 151.673 0.00292681L154.194 0.00292692C198.016 80.497 218.643 172.601 217.542 263.55Z" fill="url(#paint31_linear_233_1277)"/>
<path d="M196.095 183.63C187.388 119.468 167.24 56.7989 136.011 0.00292688L138.384 0.00292699C172.13 61.5061 192.856 129.872 200.158 199.561C198.859 194.236 197.504 188.929 196.099 183.63L196.095 183.63Z" fill="url(#paint32_linear_233_1277)"/>
<path d="M157.767 83.8403C147.79 54.8354 135.33 26.9043 120.595 0.00292776L122.869 0.00292786C139.963 31.2512 153.988 63.8932 164.586 97.9033C162.378 93.185 160.104 88.4961 157.767 83.8403Z" fill="url(#paint33_linear_233_1277)"/>
<defs>
<linearGradient id="paint0_linear_233_1277" x1="422.525" y1="1183.22" x2="558.996" y2="1183.22" gradientUnits="userSpaceOnUse">
<stop stop-color="white" stop-opacity="0"/>
<stop offset="1" stop-color="white"/>
</linearGradient>
<linearGradient id="paint1_linear_233_1277" x1="405.515" y1="1164.47" x2="558.996" y2="1164.47" gradientUnits="userSpaceOnUse">
<stop stop-color="white" stop-opacity="0"/>
<stop offset="1" stop-color="white"/>
</linearGradient>
<linearGradient id="paint2_linear_233_1277" x1="388.679" y1="1145.69" x2="558.996" y2="1145.69" gradientUnits="userSpaceOnUse">
<stop stop-color="white" stop-opacity="0"/>
<stop offset="1" stop-color="white"/>
</linearGradient>
<linearGradient id="paint3_linear_233_1277" x1="372.068" y1="1126.81" x2="558.996" y2="1126.81" gradientUnits="userSpaceOnUse">
<stop stop-color="white" stop-opacity="0"/>
<stop offset="1" stop-color="white"/>
</linearGradient>
<linearGradient id="paint4_linear_233_1277" x1="355.614" y1="1107.65" x2="558.996" y2="1107.65" gradientUnits="userSpaceOnUse">
<stop stop-color="white" stop-opacity="0"/>
<stop offset="1" stop-color="white"/>
</linearGradient>
<linearGradient id="paint5_linear_233_1277" x1="338.815" y1="1088.08" x2="558.996" y2="1088.08" gradientUnits="userSpaceOnUse">
<stop stop-color="white" stop-opacity="0"/>
<stop offset="1" stop-color="white"/>
</linearGradient>
<linearGradient id="paint6_linear_233_1277" x1="322.781" y1="1067.79" x2="558.996" y2="1067.79" gradientUnits="userSpaceOnUse">
<stop stop-color="white" stop-opacity="0"/>
<stop offset="1" stop-color="white"/>
</linearGradient>
<linearGradient id="paint7_linear_233_1277" x1="306.853" y1="1046.39" x2="558.996" y2="1046.39" gradientUnits="userSpaceOnUse">
<stop stop-color="white" stop-opacity="0"/>
<stop offset="1" stop-color="white"/>
</linearGradient>
<linearGradient id="paint8_linear_233_1277" x1="290.22" y1="1023.31" x2="558.996" y2="1023.31" gradientUnits="userSpaceOnUse">
<stop stop-color="white" stop-opacity="0"/>
<stop offset="1" stop-color="white"/>
</linearGradient>
<linearGradient id="paint9_linear_233_1277" x1="274.995" y1="997.791" x2="558.996" y2="997.791" gradientUnits="userSpaceOnUse">
<stop stop-color="white" stop-opacity="0"/>
<stop offset="1" stop-color="white"/>
</linearGradient>
<linearGradient id="paint10_linear_233_1277" x1="259.425" y1="967.848" x2="558.996" y2="967.849" gradientUnits="userSpaceOnUse">
<stop stop-color="white" stop-opacity="0"/>
<stop offset="1" stop-color="white"/>
</linearGradient>
<linearGradient id="paint11_linear_233_1277" x1="244.006" y1="926.045" x2="558.996" y2="926.045" gradientUnits="userSpaceOnUse">
<stop stop-color="white" stop-opacity="0"/>
<stop offset="1" stop-color="white"/>
</linearGradient>
<linearGradient id="paint12_linear_233_1277" x1="228.733" y1="777.987" x2="554.315" y2="777.987" gradientUnits="userSpaceOnUse">
<stop stop-color="white" stop-opacity="0"/>
<stop offset="1" stop-color="white"/>
</linearGradient>
<linearGradient id="paint13_linear_233_1277" x1="213.604" y1="777.987" x2="532.712" y2="777.987" gradientUnits="userSpaceOnUse">
<stop stop-color="white" stop-opacity="0"/>
<stop offset="1" stop-color="white"/>
</linearGradient>
<linearGradient id="paint14_linear_233_1277" x1="198.663" y1="777.987" x2="511.754" y2="777.987" gradientUnits="userSpaceOnUse">
<stop stop-color="white" stop-opacity="0"/>
<stop offset="1" stop-color="white"/>
</linearGradient>
<linearGradient id="paint15_linear_233_1277" x1="183.895" y1="777.987" x2="491.275" y2="777.987" gradientUnits="userSpaceOnUse">
<stop stop-color="white" stop-opacity="0"/>
<stop offset="1" stop-color="white"/>
</linearGradient>
<linearGradient id="paint16_linear_233_1277" x1="169.282" y1="777.987" x2="471.311" y2="777.987" gradientUnits="userSpaceOnUse">
<stop stop-color="white" stop-opacity="0"/>
<stop offset="1" stop-color="white"/>
</linearGradient>
<linearGradient id="paint17_linear_233_1277" x1="154.834" y1="777.987" x2="451.803" y2="777.987" gradientUnits="userSpaceOnUse">
<stop stop-color="white" stop-opacity="0"/>
<stop offset="1" stop-color="white"/>
</linearGradient>
<linearGradient id="paint18_linear_233_1277" x1="140.534" y1="777.987" x2="432.74" y2="777.987" gradientUnits="userSpaceOnUse">
<stop stop-color="white" stop-opacity="0"/>
<stop offset="1" stop-color="white"/>
</linearGradient>
<linearGradient id="paint19_linear_233_1277" x1="126.399" y1="777.987" x2="414.105" y2="777.987" gradientUnits="userSpaceOnUse">
<stop stop-color="white" stop-opacity="0"/>
<stop offset="1" stop-color="white"/>
</linearGradient>
<linearGradient id="paint20_linear_233_1277" x1="112.425" y1="777.987" x2="395.866" y2="777.987" gradientUnits="userSpaceOnUse">
<stop stop-color="white" stop-opacity="0"/>
<stop offset="1" stop-color="white"/>
</linearGradient>
<linearGradient id="paint21_linear_233_1277" x1="98.5918" y1="777.987" x2="378.011" y2="777.987" gradientUnits="userSpaceOnUse">
<stop stop-color="white" stop-opacity="0"/>
<stop offset="1" stop-color="white"/>
</linearGradient>
<linearGradient id="paint22_linear_233_1277" x1="84.9061" y1="777.987" x2="361.465" y2="777.988" gradientUnits="userSpaceOnUse">
<stop stop-color="white" stop-opacity="0"/>
<stop offset="1" stop-color="white"/>
</linearGradient>
<linearGradient id="paint23_linear_233_1277" x1="71.3413" y1="777.987" x2="344.578" y2="777.987" gradientUnits="userSpaceOnUse">
<stop stop-color="white" stop-opacity="0"/>
<stop offset="1" stop-color="white"/>
</linearGradient>
<linearGradient id="paint24_linear_233_1277" x1="57.924" y1="777.987" x2="328.084" y2="777.987" gradientUnits="userSpaceOnUse">
<stop stop-color="white" stop-opacity="0"/>
<stop offset="1" stop-color="white"/>
</linearGradient>
<linearGradient id="paint25_linear_233_1277" x1="44.6389" y1="777.987" x2="311.925" y2="777.987" gradientUnits="userSpaceOnUse">
<stop stop-color="white" stop-opacity="0"/>
<stop offset="1" stop-color="white"/>
</linearGradient>
<linearGradient id="paint26_linear_233_1277" x1="31.4349" y1="777.987" x2="294.098" y2="777.987" gradientUnits="userSpaceOnUse">
<stop stop-color="white" stop-opacity="0"/>
<stop offset="1" stop-color="white"/>
</linearGradient>
<linearGradient id="paint27_linear_233_1277" x1="18.0429" y1="777.987" x2="279.014" y2="777.987" gradientUnits="userSpaceOnUse">
<stop stop-color="white" stop-opacity="0"/>
<stop offset="1" stop-color="white"/>
</linearGradient>
<linearGradient id="paint28_linear_233_1277" x1="5.57516" y1="777.987" x2="263.219" y2="777.987" gradientUnits="userSpaceOnUse">
<stop stop-color="white" stop-opacity="0"/>
<stop offset="1" stop-color="white"/>
</linearGradient>
<linearGradient id="paint29_linear_233_1277" x1="157.087" y1="316.661" x2="247.748" y2="316.661" gradientUnits="userSpaceOnUse">
<stop stop-color="white" stop-opacity="0"/>
<stop offset="1" stop-color="white"/>
</linearGradient>
<linearGradient id="paint30_linear_233_1277" x1="167.597" y1="225.304" x2="232.605" y2="225.304" gradientUnits="userSpaceOnUse">
<stop stop-color="white" stop-opacity="0"/>
<stop offset="1" stop-color="white"/>
</linearGradient>
<linearGradient id="paint31_linear_233_1277" x1="151.673" y1="157.041" x2="217.586" y2="157.041" gradientUnits="userSpaceOnUse">
<stop stop-color="white" stop-opacity="0"/>
<stop offset="1" stop-color="white"/>
</linearGradient>
<linearGradient id="paint32_linear_233_1277" x1="136.007" y1="99.782" x2="200.154" y2="99.782" gradientUnits="userSpaceOnUse">
<stop stop-color="white" stop-opacity="0"/>
<stop offset="1" stop-color="white"/>
</linearGradient>
<linearGradient id="paint33_linear_233_1277" x1="120.595" y1="48.955" x2="164.586" y2="48.955" gradientUnits="userSpaceOnUse">
<stop stop-color="white" stop-opacity="0"/>
<stop offset="1" stop-color="white"/>
</linearGradient>
</defs>
</svg>
