<svg width="151" height="32" viewBox="0 0 151 32" fill="none" xmlns="http://www.w3.org/2000/svg">
<path d="M55.2212 0H60.2421L63.9501 11.5118L67.6493 0H72.5549L66.2122 16.983H61.5372L55.2212 0Z" fill="#BA8866"/>
<path d="M74.5508 10.5688V0H79.0395V10.7467C79.0395 12.8907 79.5895 13.4245 81.7629 13.4245C83.9362 13.4245 84.4951 12.8907 84.4951 10.7467V0H88.9394V10.5688C88.9394 15.0081 86.562 17.2054 81.7717 17.2054C76.9815 17.2054 74.5508 15.0081 74.5508 10.5688Z" fill="#BA8866"/>
<path d="M103.798 13.0865V16.9741H91.8047V0H96.3732V13.0865H103.798Z" fill="#BA8866"/>
<path d="M114.319 5.56908C114.319 3.93217 113.875 3.52294 112.084 3.52294H110.025V7.61523H112.066C113.867 7.61523 114.31 7.206 114.31 5.56908M118.657 5.60467C118.657 9.32332 116.661 11.1738 112.625 11.1738H110.025V16.9741H105.537V0H112.634C116.661 0 118.657 1.85933 118.657 5.60467Z" fill="#BA8866"/>
<path d="M133.427 13.3622V16.9741H121.043V0H133.134V3.54073H125.541V6.60995H132.389V10.0528H125.541V13.3622H133.427Z" fill="#BA8866"/>
<path d="M146.547 0V9.39449L139.007 0H135.511V16.9741H139.796V7.57965L147.345 16.9741H150.831V0H146.547Z" fill="#BA8866"/>
<path d="M0 0H1.56127L7.49589 15.1148L13.4305 0H14.9474L8.17894 16.983H6.76848L0 0Z" fill="#BA8866"/>
<path d="M28.1118 11.3962L24.3062 1.6903L20.5006 11.3962H28.1029H28.1118ZM28.5997 12.6594H20.0038L18.3095 16.9741H16.7748L23.6586 0H24.9804L31.8553 16.9741H30.2941L28.5997 12.6594Z" fill="#BA8866"/>
<path d="M35.0666 0H36.2819L46.6076 14.3319V0H47.9737V16.9741H46.785L36.4504 2.6511V16.9741H35.0666V0Z" fill="#BA8866"/>
<path d="M38.8012 31.5997L38.9964 30.6745C39.502 30.9058 40.052 31.0214 40.6375 31.0214C41.6133 31.0214 41.8794 30.8702 41.8794 30.2563C41.8794 29.6425 41.6133 29.6069 40.4512 29.2244C39.298 28.8507 38.9077 28.4237 38.9077 27.5341C38.9077 26.4843 39.573 25.9594 40.9302 25.9594C41.5601 25.9594 42.1189 26.0662 42.6068 26.2708L42.4028 27.1515C41.9326 26.9558 41.4625 26.849 40.9923 26.849C40.1673 26.849 39.9456 26.9914 39.9456 27.5607C39.9456 28.0945 40.1939 28.1301 41.2673 28.4949C42.4294 28.8774 42.9262 29.2866 42.9262 30.2563C42.9262 31.3595 42.2165 31.9377 40.7617 31.9377C40.0076 31.9377 39.3601 31.831 38.8012 31.5997Z" fill="white"/>
<path d="M46.9979 26.8668C45.8624 26.8668 45.4899 27.2049 45.4366 28.5304H48.4172C48.5326 27.2405 48.1866 26.8668 46.9979 26.8668ZM49.3132 29.3934H45.4455C45.5342 30.6833 46.0221 31.0214 47.4769 31.0214C48.0624 31.0214 48.5858 30.9058 49.0027 30.7189L49.2068 31.6708C48.6834 31.8399 48.0358 31.9377 47.4326 31.9377C45.3568 31.9377 44.3987 31.0125 44.3987 28.9486C44.3987 26.9914 45.3391 25.9594 47.0157 25.9594C48.9229 25.9594 49.6858 27.0892 49.3132 29.3845" fill="white"/>
<path d="M51.1406 26.0751H51.868L52.0454 27.0448H52.0632C52.4712 26.3331 53.039 25.9683 53.7664 25.9683C53.997 25.9683 54.2188 25.995 54.4051 26.0484L54.2099 27.0981C54.0414 27.0359 53.8462 27.0092 53.6244 27.0092C53.0567 27.0092 52.5865 27.2494 52.1962 27.7387V31.831H51.1317V26.0751H51.1406Z" fill="white"/>
<path d="M62.5042 26.0751H63.5687V31.831H62.5042V26.0751ZM62.3534 24.5093C62.3534 24.0111 62.5396 23.8332 63.0542 23.8332C63.5687 23.8332 63.7372 24.0111 63.7372 24.5004C63.7372 24.9897 63.5509 25.1854 63.0453 25.1854C62.5397 25.1854 62.3534 25.0075 62.3534 24.5093Z" fill="white"/>
<path d="M65.3428 28.9575C65.3428 26.9647 66.3186 25.9683 68.2702 25.9683C68.8646 25.9683 69.4412 26.0662 69.8315 26.2441L69.6097 27.1782C69.2904 27.0003 68.838 26.8935 68.3678 26.8935C66.8598 26.8935 66.4428 27.3027 66.4428 28.9486C66.4428 30.5944 66.8509 30.9947 68.3678 30.9947C68.9001 30.9947 69.4057 30.8969 69.7605 30.7367L69.9823 31.7153C69.4855 31.8577 68.8646 31.9377 68.2791 31.9377C66.3275 31.9377 65.3517 30.9502 65.3517 28.9486" fill="white"/>
<path d="M73.8234 26.8668C72.6879 26.8668 72.3154 27.2049 72.2621 28.5304H75.2427C75.3581 27.2405 75.0121 26.8668 73.8234 26.8668ZM76.1387 29.3934H72.271C72.3597 30.6833 72.8476 31.0214 74.3024 31.0214C74.8879 31.0214 75.4113 30.9057 75.8282 30.7189L76.0323 31.6708C75.5089 31.8399 74.8613 31.9377 74.2581 31.9377C72.1823 31.9377 71.2242 31.0125 71.2242 28.9486C71.2242 26.9914 72.1646 25.9594 73.8411 25.9594C75.7484 25.9594 76.5113 27.0892 76.1387 29.3845" fill="white"/>
<path d="M82.2596 25.8438C82.2596 26.333 82.4459 26.5199 83.1733 27.2761C84.3709 26.6533 84.5483 26.4843 84.5483 25.8349C84.5483 25.2299 84.2999 25.0787 83.4128 25.0787C82.5257 25.0787 82.2596 25.2299 82.2596 25.8349M85.0894 30.5944L82.9782 28.3614C82.0201 28.8952 81.8516 29.1532 81.8516 29.8738C81.8516 30.799 82.2064 31.0303 83.5281 31.0303C84.2644 31.0303 84.7612 30.9146 85.0983 30.5855M86.4201 32L85.6838 31.226C85.1781 31.7064 84.4507 31.9466 83.4749 31.9466C81.683 31.9466 80.787 31.2794 80.787 29.9272C80.787 29.0464 81.2661 28.397 82.3661 27.7298C81.6032 26.9113 81.3282 26.4754 81.3282 25.8082C81.3282 24.8029 82.0733 24.2513 83.4217 24.2513C84.7701 24.2513 85.5064 24.8029 85.5064 25.8082C85.5064 26.6711 84.9918 27.285 83.7854 27.9344L85.5241 29.7403C85.6128 29.3667 85.6483 28.8863 85.6483 28.2991H86.5886C86.5886 29.1888 86.4644 29.9094 86.2072 30.4609L87.0765 31.3684L86.4023 32H86.4201Z" fill="white"/>
<path d="M96.2845 28.9575C96.2845 27.3116 95.9119 26.9024 94.5458 26.9024C93.1796 26.9024 92.7982 27.3116 92.7982 28.9575C92.7982 30.6033 93.1708 31.0036 94.5458 31.0036C95.9207 31.0036 96.2845 30.5944 96.2845 28.9575ZM91.6982 28.9575C91.6982 26.9647 92.6385 25.9683 94.5458 25.9683C96.453 25.9683 97.3844 26.9647 97.3844 28.9575C97.3844 30.9502 96.4441 31.9466 94.5458 31.9466C92.6474 31.9466 91.6982 30.9591 91.6982 28.9575Z" fill="white"/>
<path d="M99.1675 26.0751H99.9038L100.099 26.8935H100.117C100.693 26.3153 101.509 25.9683 102.396 25.9683C103.665 25.9683 104.286 26.6444 104.286 28.0056V31.831H103.221V28.139C103.221 27.196 102.973 26.9558 102.077 26.9558C101.438 26.9558 100.773 27.1515 100.232 27.4896V31.8221H99.1675V26.0662V26.0751Z" fill="white"/>
<path d="M108.571 31.0036C109.174 31.0036 109.777 30.8168 110.265 30.4431V27.4184C109.83 27.0803 109.227 26.8935 108.597 26.8935C107.391 26.8935 107.054 27.3027 107.054 28.9575C107.054 30.6122 107.382 31.0036 108.571 31.0036ZM111.329 23.7976V31.831H110.593L110.398 31.0392C109.866 31.5997 109.129 31.9377 108.322 31.9377C106.761 31.9377 105.971 30.9502 105.971 28.9575C105.971 26.9647 106.796 25.9505 108.367 25.9505C109.156 25.9505 109.83 26.2174 110.274 26.7156V23.7976H111.338H111.329Z" fill="white"/>
<path d="M115.712 26.8668C114.576 26.8668 114.204 27.2049 114.15 28.5304H117.131C117.246 27.2405 116.9 26.8668 115.712 26.8668ZM118.027 29.3934H114.159C114.248 30.6833 114.736 31.0214 116.191 31.0214C116.776 31.0214 117.308 30.9057 117.717 30.7189L117.921 31.6708C117.397 31.8399 116.75 31.9377 116.146 31.9377C114.071 31.9377 113.113 31.0125 113.113 28.9486C113.113 26.9914 114.053 25.9594 115.729 25.9594C117.637 25.9594 118.4 27.0892 118.027 29.3845" fill="white"/>
<path d="M119.854 26.0751H120.582L120.759 27.0448H120.777C121.185 26.333 121.753 25.9683 122.48 25.9683C122.711 25.9683 122.933 25.995 123.119 26.0484L122.933 27.0981C122.764 27.0359 122.569 27.0092 122.347 27.0092C121.779 27.0092 121.309 27.2494 120.919 27.7387V31.831H119.854V26.0751Z" fill="white"/>
<path d="M124.636 23.7976H125.7V26.8135H125.718C126.268 26.2619 127.049 25.9416 127.856 25.9416C129.124 25.9416 129.754 26.6266 129.754 27.9967V31.831H128.69V28.139C128.69 27.1871 128.441 26.938 127.537 26.938C126.907 26.938 126.241 27.1426 125.7 27.4985V31.831H124.636V23.7976Z" fill="white"/>
<path d="M136.017 28.9575C136.017 27.3116 135.645 26.9024 134.278 26.9024C132.912 26.9024 132.531 27.3116 132.531 28.9575C132.531 30.6033 132.903 31.0036 134.278 31.0036C135.653 31.0036 136.017 30.5944 136.017 28.9575ZM131.431 28.9575C131.431 26.9647 132.371 25.9683 134.278 25.9683C136.186 25.9683 137.117 26.9647 137.117 28.9575C137.117 30.9502 136.177 31.9466 134.278 31.9466C132.38 31.9466 131.431 30.9591 131.431 28.9575Z" fill="white"/>
<path d="M138.803 29.9005V26.0751H139.867V29.767C139.867 30.71 140.115 30.9502 141.011 30.9502C141.703 30.9502 142.369 30.7634 142.874 30.4254V26.0751H143.939V31.831H143.203L143.007 31.0481H142.99C142.422 31.5908 141.597 31.9377 140.692 31.9377C139.424 31.9377 138.803 31.2616 138.803 29.9005Z" fill="white"/>
<path d="M148.232 31.0036C148.836 31.0036 149.439 30.8168 149.927 30.4431V27.4184C149.492 27.0803 148.889 26.8935 148.259 26.8935C147.052 26.8935 146.715 27.3027 146.715 28.9575C146.715 30.6122 147.044 31.0036 148.232 31.0036ZM150.991 23.7976V31.831H150.255L150.06 31.0392C149.527 31.5997 148.791 31.9377 147.984 31.9377C146.423 31.9377 145.633 30.9502 145.633 28.9575C145.633 26.9647 146.458 25.9505 148.028 25.9505C148.818 25.9505 149.492 26.2174 149.935 26.7156V23.7976H151H150.991Z" fill="white"/>
<path d="M59.9139 26.0751L58.1752 30.6033L56.4276 26.0751H55.2833L57.6961 31.8399H58.6542L61.0493 26.0751H59.9139Z" fill="white"/>
</svg>
